<?xml version="1.0" encoding="UTF-8" standalone="no"?>
<!DOCTYPE svg PUBLIC "-//W3C//DTD SVG 1.1//EN" "http://www.w3.org/Graphics/SVG/1.1/DTD/svg11.dtd">
<svg width="100%" height="100%" viewBox="0 0 142 72" version="1.1" xmlns="http://www.w3.org/2000/svg" xmlns:xlink="http://www.w3.org/1999/xlink" xml:space="preserve" xmlns:serif="http://www.serif.com/" style="fill-rule:evenodd;clip-rule:evenodd;stroke-linejoin:round;stroke-miterlimit:2;">
    <g transform="matrix(0.0637898,0,0,0.0637898,-9.20001,-43.7373)">
        <path d="M2355.79,1814.35L144.224,1814.35L144.224,685.647L2355.79,685.647L2355.79,1814.35ZM2269.84,1728.4L2269.84,771.597L230.161,771.597L230.161,1728.4L2269.84,1728.4ZM891.905,831.751L717.163,1589.83L737.214,1651.06L553.874,1651.06L330.431,831.751L508.583,831.621L677.878,1441.5L818.379,831.984L891.905,831.751ZM1350.22,1347.42L1287.25,1416.17L1138.28,1416.17L1138.28,1651.06L966.39,1651.06L966.39,1416.17L901.269,1416.17L966.39,1347.42L966.39,831.751L1138.27,831.751L1138.27,1347.42L1350.22,1347.42ZM1522.14,1651.06L1350.27,1651.06L1350.27,831.751L1522.14,831.751L1522.14,1651.06ZM2195.37,1421.55C2195.37,1494.3 2167.78,1550.74 2112.74,1590.85C2057.64,1631 2000.64,1651.06 1941.82,1651.06L1673.26,1651.06L1648.86,1582.31L1881.1,1582.31C1938.95,1582.31 1979.56,1571.34 2002.84,1549.41C2026.12,1527.48 2037.8,1502.66 2037.8,1475.1C2037.8,1445.04 2034,1423.35 2026.47,1410.2C2018.9,1397.03 1998.76,1382.9 1966.09,1367.84L1751.02,1296.35C1709.48,1281.31 1672.37,1256.56 1639.69,1222.1C1606.99,1187.63 1590.62,1135.26 1590.62,1064.99C1590.62,991.033 1619.25,933.667 1676.45,892.878C1733.64,852.139 1799.98,831.738 1875.45,831.738L2181.03,831.738L2162.16,900.491L1984.54,900.491C1922.81,900.491 1869.28,909.946 1823.94,928.739C1778.6,947.532 1755.95,980.8 1755.95,1028.42C1755.95,1073.59 1779.1,1107.11 1825.43,1129.04C1871.73,1150.96 1924.65,1168.56 1984.08,1181.73C2043.53,1194.89 2093.61,1220 2134.32,1256.96C2174.99,1293.97 2195.37,1348.83 2195.37,1421.55Z" style="fill:rgb(255,0,128);"/>
    </g>
</svg>
